<svg width="400" height="70" viewBox="0 0 533 120" fill="none" xmlns="http://www.w3.org/2000/svg">
<path d="M2.76403 42.5H135.5V118.5H2.80277L27.2481 81.8321L27.7958 81.0104L27.2577 80.1825L2.76403 42.5Z" fill="#F2AF5C" stroke="#2A4759" stroke-width="3"/>
<path d="M500.838 82.9482L529.84 118.5H397.5V42.5H529.985L500.804 81.0953L500.093 82.0352L500.838 82.9482Z" fill="#F2AF5C" stroke="#2A4759" stroke-width="3"/>
<rect x="84.5" y="1.5" width="365" height="76" fill="#F2AF5C" stroke="#2A4759" stroke-width="3"/>
<line x1="128" y1="79" x2="128" y2="111" stroke="#2A4759" stroke-width="2"/>
<line x1="120" y1="79" x2="120" y2="107" stroke="#2A4759" stroke-width="2"/>
<line x1="96" y1="79" x2="96" y2="89" stroke="#2A4759" stroke-width="2"/>
<line x1="112" y1="79" x2="112" y2="101" stroke="#2A4759" stroke-width="2"/>
<line x1="104" y1="79" x2="104" y2="95" stroke="#2A4759" stroke-width="2"/>
<line x1="83.8928" y1="78.7947" x2="136.928" y2="118.08" stroke="#2A4759" stroke-width="3"/>
<line y1="-1.5" x2="67.2012" y2="-1.5" transform="matrix(-0.803557 0.595228 0.595228 0.803557 451 80)" stroke="#2A4759" stroke-width="3"/>
<line y1="-1" x2="32" y2="-1" transform="matrix(0 1 1 0 406 79)" stroke="#2A4759" stroke-width="2"/>
<line y1="-1" x2="28" y2="-1" transform="matrix(0 1 1 0 414 79)" stroke="#2A4759" stroke-width="2"/>
<line y1="-1" x2="10" y2="-1" transform="matrix(0 1 1 0 438 79)" stroke="#2A4759" stroke-width="2"/>
<line y1="-1" x2="22" y2="-1" transform="matrix(0 1 1 0 422 79)" stroke="#2A4759" stroke-width="2"/>
<line y1="-1" x2="16" y2="-1" transform="matrix(0 1 1 0 430 79)" stroke="#2A4759" stroke-width="2"/>
</svg>
